<?xml version="1.0" encoding="utf-8"?>
<!-- Generator: Adobe Illustrator 16.0.0, SVG Export Plug-In . SVG Version: 6.00 Build 0)  -->
<!DOCTYPE svg PUBLIC "-//W3C//DTD SVG 1.1//EN" "http://www.w3.org/Graphics/SVG/1.1/DTD/svg11.dtd">
<svg version="1.1" id="Layer_1" xmlns="http://www.w3.org/2000/svg" xmlns:xlink="http://www.w3.org/1999/xlink" x="0px" y="0px"
	 width="216px" height="216px" viewBox="-58 -58 216 216" enable-background="new -58 -58 216 216" xml:space="preserve">
<path fill="#FFFFFF" d="M86.282,106.047l-28.056,0.017c-1.718,0-3.109,1.398-3.11,3.114l0.02,33.486
	c0.001,1.72,1.379,2.866,3.013,2.331c12.062-3.96,22.774-17.312,30.145-36.041C88.922,107.354,88.001,106.046,86.282,106.047"/>
<path fill="#FFFFFF" d="M41.834,106.073l-26.745,0.013c-1.719,0.001-2.64,1.312-2.007,2.912
	c7.136,18.065,17.369,31.109,28.922,35.538c1.603,0.619,2.966-0.449,2.964-2.169l-0.017-33.184
	C44.949,107.466,43.552,106.071,41.834,106.073"/>
<path fill="#FFFFFF" d="M58.165-5.792l28.054-0.015c1.718,0,2.64-1.313,2.008-2.91c-7.392-18.723-18.119-32.06-30.189-36.003
	c-1.633-0.534-3.008,0.613-3.006,2.331l0.018,33.485C55.051-7.184,56.445-5.791,58.165-5.792"/>
<path fill="#FFFFFF" d="M-42.836,45.11l32.297-0.02c1.716,0,3.145-1.396,3.212-3.113c0.48-12.259,2.058-23.875,4.552-34.542
	c0.392-1.674-0.657-3.022-2.376-3.021L-31.386,4.43c-1.718,0.001-3.782,1.224-4.553,2.76c-5.339,10.637-8.756,22.392-9.801,34.812
	C-45.885,43.718-44.559,45.11-42.836,45.11"/>
<path fill="#FFFFFF" d="M15.026-5.768L41.77-5.783c1.718-0.001,3.114-1.396,3.113-3.115l-0.018-33.184
	c-0.002-1.718-1.366-2.787-2.971-2.169C30.351-39.799,20.131-26.749,13.016-8.678C12.387-7.077,13.308-5.766,15.026-5.768"/>
<path fill="#FFFFFF" d="M-2.728,92.904c-2.508-10.663-4.096-22.276-4.589-34.536c-0.071-1.718-1.498-3.109-3.218-3.109
	l-32.297,0.018c-1.722,0.002-3.048,1.396-2.899,3.107c1.059,12.423,4.49,24.173,9.839,34.805c0.772,1.535,2.839,2.756,4.559,2.756
	l26.234-0.015C-3.38,95.93-2.333,94.578-2.728,92.904"/>
<path fill="#FFFFFF" d="M-24.975-5.744l22.794-0.014c1.716-0.001,3.546-1.326,4.125-2.943c4.332-12.106,9.99-22.416,16.627-30.301
	c1.108-1.316,0.732-1.913-0.886-1.334C0.126-34.045-15.077-22.778-26.233-8.241C-27.279-6.879-26.693-5.743-24.975-5.744"/>
<path fill="#FFFFFF" d="M2.011,109.037c-0.58-1.618-2.41-2.94-4.13-2.939l-22.79,0.013c-1.722,0-2.306,1.135-1.258,2.496
	c11.173,14.526,26.388,25.774,43.955,32.049c1.619,0.576,1.995-0.018,0.887-1.334C12.026,131.444,6.357,121.141,2.011,109.037"/>
<path fill="#FFFFFF" d="M99.296-8.757c0.585,1.621,2.414,2.942,4.132,2.942l21.482-0.015c1.72,0,2.306-1.135,1.257-2.498
	c-10.771-13.997-25.297-24.947-42.071-31.335c-1.606-0.613-1.987-0.03-0.895,1.296C89.604-30.579,95.077-20.514,99.296-8.757"/>
<path fill="#FFFFFF" d="M124.975,106.025l-21.484,0.012c-1.717,0.002-3.547,1.324-4.127,2.944
	c-4.206,11.766-9.668,21.832-16.061,29.627c-1.092,1.329-0.71,1.914,0.896,1.299c16.762-6.406,31.279-17.378,42.033-31.384
	C127.28,107.16,126.695,106.023,124.975,106.025"/>
<path fill="#FFFFFF" d="M41.806,55.229l-35.939,0.02c-1.72,0-3.077,1.396-3,3.114C3.42,70.623,5.179,82.3,7.902,92.914
	c0.429,1.666,2.199,3.008,3.92,3.008l30.007-0.019c1.718-0.001,3.112-1.395,3.11-3.117l-0.018-34.445
	C44.919,56.622,43.521,55.229,41.806,55.229"/>
<path fill="#FFFFFF" d="M41.776,4.388L11.771,4.406c-1.722,0-3.491,1.342-3.916,3.009C5.143,18.03,3.396,29.713,2.857,41.972
	c-0.076,1.72,1.285,3.11,3.002,3.109l35.938-0.02c1.719-0.001,3.115-1.395,3.113-3.115l-0.02-34.449
	C44.891,5.779,43.493,4.387,41.776,4.388"/>
<path fill="#FFFFFF" d="M142.839,55.173l-20.958,0.011c-1.596,3.353-4.137,6.157-7.287,8.078c-0.112,0.071-0.227,0.139-0.342,0.207
	c-0.355,0.207-0.72,0.401-1.089,0.585c-1.55,0.793-3.209,1.402-4.974,1.735c-0.734,9.513-2.126,18.588-4.104,27.055
	c-0.393,1.676,0.657,3.024,2.374,3.024l24.925-0.016c1.719-0.002,3.783-1.224,4.557-2.762c5.337-10.633,8.753-22.392,9.798-34.812
	C145.884,56.565,144.557,55.173,142.839,55.173L142.839,55.173z"/>
<path fill="#FFFFFF" d="M94.892,63.291c-0.052-0.033-0.105-0.062-0.156-0.095c-3.095-1.916-5.592-4.688-7.169-7.992l-29.364,0.018
	c-1.722,0-3.113,1.396-3.113,3.111l0.02,34.449c0,1.719,1.396,3.113,3.115,3.111l31.315-0.016c1.719-0.002,3.49-1.348,3.913-3.014
	c2.224-8.702,3.787-18.127,4.577-27.992c-0.141-0.055-0.262-0.145-0.403-0.202C96.672,64.284,95.762,63.819,94.892,63.291
	L94.892,63.291z"/>
<path fill="#FFFFFF" d="M97.424,29.472c-0.888-7.73-2.234-15.154-4.019-22.104c-0.425-1.666-2.198-3.007-3.918-3.005L58.17,4.379
	c-1.719,0.001-3.111,1.396-3.109,3.114l0.019,34.447c0.003,1.721,1.396,3.113,3.114,3.111l27.613-0.015
	C86.543,37.989,91.128,32.089,97.424,29.472L97.424,29.472z"/>
<path fill="#FFFFFF" d="M135.89,7.094c-0.771-1.535-2.838-2.758-4.558-2.758l-24.926,0.017c-1.717,0-2.766,1.35-2.372,3.021
	c1.554,6.611,2.724,13.61,3.53,20.878c8.494,1.278,15.153,8.153,16.062,16.765l19.204-0.013c1.721,0,3.045-1.394,2.899-3.107
	C144.671,29.476,141.24,17.723,135.89,7.094L135.89,7.094z"/>
</svg>
