<svg height='100px' width='100px'  fill="#ffffff" xmlns="http://www.w3.org/2000/svg" xmlns:xlink="http://www.w3.org/1999/xlink" version="1.1" x="0px" y="0px" viewBox="0 0 200 200" enable-background="new 0 0 200 200" xml:space="preserve"><g><g><g><rect x="96.987" y="26.101" fill="#ffffff" width="6.021" height="6.02"></rect><rect x="87.595" y="167.88" fill="#ffffff" width="24.805" height="6.021"></rect><path fill="#ffffff" d="M144.612,184.673H55.393c-10.066,0-18.256-8.181-18.256-18.232v-37.479h6.02v37.479     c0,6.733,5.488,12.212,12.236,12.212h89.219c6.742,0,12.229-5.479,12.229-12.212v-37.479h6.02v37.479     C162.86,176.492,154.675,184.673,144.612,184.673z"></path><path fill="#ffffff" d="M162.86,71.062h-6.02V33.583c0-6.747-5.486-12.235-12.229-12.235H55.393     c-6.748,0-12.236,5.488-12.236,12.235v37.479h-6.02V33.583c0-10.065,8.19-18.255,18.256-18.255h89.219     c10.063,0,18.248,8.19,18.248,18.255V71.062z"></path><path fill="#ffffff" d="M149.697,163.127H50.303V36.874h99.394V163.127z M56.323,157.107h87.354V42.894H56.323V157.107z"></path></g><g><g><path fill="#ffffff" d="M116.979,127.38h-6.02c0-2.932-1.14-5.683-3.208-7.752c-2.073-2.069-4.827-3.211-7.752-3.211      c-2.93,0-5.682,1.139-7.751,3.211c-2.072,2.069-3.211,4.823-3.211,7.752h-6.02c0-4.538,1.766-8.803,4.974-12.009      c3.205-3.208,7.47-4.975,12.009-4.975c4.532,0,8.796,1.767,12.008,4.973C115.215,118.577,116.979,122.842,116.979,127.38z"></path><path fill="#ffffff" d="M99.998,106.503c-7.438,0-13.488-6.052-13.488-13.489s6.05-13.489,13.488-13.489      c7.439,0,13.49,6.051,13.49,13.489S107.437,106.503,99.998,106.503z M99.998,85.545c-4.118,0-7.468,3.35-7.468,7.469      s3.35,7.469,7.468,7.469c4.119,0,7.47-3.35,7.47-7.469S104.116,85.545,99.998,85.545z"></path></g><path fill="#ffffff" d="M100,134.448c-18.996,0-34.45-15.453-34.45-34.449c0-18.994,15.454-34.447,34.45-34.447     c18.994,0,34.447,15.453,34.447,34.447C134.447,118.995,118.994,134.448,100,134.448z M100,71.572     c-15.676,0-28.429,12.752-28.429,28.427c0,15.676,12.753,28.429,28.429,28.429c15.675,0,28.427-12.753,28.427-28.429     C128.427,84.325,115.675,71.572,100,71.572z"></path></g></g><g><g><rect x="146.687" y="90.457" fill="#ffffff" width="32.664" height="6.02"></rect><rect x="185.883" y="90.457" fill="#ffffff" width="6.534" height="6.02"></rect></g><g><rect x="146.687" y="103.522" fill="#ffffff" width="32.664" height="6.02"></rect><rect x="185.883" y="103.522" fill="#ffffff" width="6.534" height="6.02"></rect></g><g><polygon fill="#ffffff" points="167.301,83.413 146.687,83.413 146.687,77.393 164.806,77.393 181.479,60.719 185.735,64.975         "></polygon><path fill="#ffffff" d="M189.151,68.153c-5.983,0-10.852-4.866-10.852-10.849c0-5.983,4.868-10.851,10.852-10.851     c5.982,0,10.849,4.868,10.849,10.851C200,63.287,195.134,68.153,189.151,68.153z M189.151,52.474     c-2.664,0-4.831,2.167-4.831,4.831c0,2.663,2.167,4.829,4.831,4.829c2.662,0,4.828-2.166,4.828-4.829     C193.979,54.641,191.813,52.474,189.151,52.474z"></path></g><g><polygon fill="#ffffff" points="181.479,139.276 164.806,122.606 146.687,122.606 146.687,116.587 167.301,116.587      185.735,135.021    "></polygon><path fill="#ffffff" d="M189.151,153.543c-5.983,0-10.852-4.868-10.852-10.852s4.868-10.849,10.852-10.849     c5.982,0,10.849,4.865,10.849,10.849S195.134,153.543,189.151,153.543z M189.151,137.863c-2.664,0-4.831,2.166-4.831,4.828     c0,2.663,2.167,4.831,4.831,4.831c2.662,0,4.828-2.168,4.828-4.831C193.979,140.029,191.813,137.863,189.151,137.863z"></path></g></g><g><g><rect x="20.649" y="90.457" fill="#ffffff" width="32.664" height="6.02"></rect><rect x="7.583" y="90.457" fill="#ffffff" width="6.534" height="6.02"></rect></g><g><rect x="20.649" y="103.522" fill="#ffffff" width="32.664" height="6.02"></rect><rect x="7.583" y="103.522" fill="#ffffff" width="6.534" height="6.02"></rect></g><g><polygon fill="#ffffff" points="53.313,83.413 32.699,83.413 14.264,64.975 18.522,60.719 35.194,77.393 53.313,77.393    "></polygon><path fill="#ffffff" d="M10.849,68.153C4.867,68.153,0,63.287,0,57.305c0-5.983,4.867-10.851,10.849-10.851     c5.983,0,10.851,4.868,10.851,10.851C21.7,63.287,16.832,68.153,10.849,68.153z M10.849,52.474c-2.663,0-4.829,2.167-4.829,4.831     c0,2.663,2.166,4.829,4.829,4.829c2.664,0,4.831-2.166,4.831-4.829C15.68,54.641,13.513,52.474,10.849,52.474z"></path></g><g><polygon fill="#ffffff" points="18.521,139.276 14.265,135.021 32.699,116.587 53.313,116.587 53.313,122.606 35.194,122.606         "></polygon><path fill="#ffffff" d="M10.849,153.543C4.867,153.543,0,148.675,0,142.691s4.867-10.849,10.849-10.849     c5.983,0,10.851,4.865,10.851,10.849S16.832,153.543,10.849,153.543z M10.849,137.863c-2.663,0-4.829,2.166-4.829,4.828     c0,2.663,2.166,4.831,4.829,4.831c2.664,0,4.831-2.168,4.831-4.831C15.68,140.029,13.513,137.863,10.849,137.863z"></path></g></g></g></svg>