<?xml version="1.0" encoding="utf-8"?>
<!-- Generator: Adobe Illustrator 16.0.0, SVG Export Plug-In . SVG Version: 6.00 Build 0)  -->
<!DOCTYPE svg PUBLIC "-//W3C//DTD SVG 1.1//EN" "http://www.w3.org/Graphics/SVG/1.1/DTD/svg11.dtd">
<svg version="1.1" id="Layer_1" xmlns="http://www.w3.org/2000/svg" xmlns:xlink="http://www.w3.org/1999/xlink" x="0px" y="0px"
	 width="294.5px" height="294.5px" viewBox="0 0 294.5 294.5" enable-background="new 0 0 294.5 294.5" xml:space="preserve">
<g>
	<path fill="#FFFFFF" d="M208.115,191.719c0,4.496-1.879,8.625-4.859,11.538c-2.916,3.04-7.047,4.801-11.537,4.801h-88.995
		c-4.497,0-8.628-1.761-11.545-4.801c-2.974-2.913-4.795-7.042-4.795-11.538v-88.935c0-4.497,1.821-8.627,4.795-11.6
		c2.917-2.981,7.049-4.803,11.545-4.803h88.995c4.49,0,8.621,1.821,11.537,4.803c2.98,2.973,4.859,7.103,4.859,11.6V191.719
		L208.115,191.719z M263.158,136.281c3.225,0,5.9-2.676,5.9-5.695c0-3.154-2.676-5.893-5.9-5.893h-27.846V102.88h27.846
		c3.225,0,5.9-2.677,5.9-5.829c0-3.295-2.676-5.83-5.9-5.83h-28.252c-1.309-8.091-5.08-15.43-10.703-20.922
		c-5.557-5.556-12.756-9.391-20.988-10.767V31.209c0-3.154-2.604-5.697-5.758-5.697c-3.223,0-5.768,2.543-5.768,5.697v27.979
		h-21.943V31.209c0-3.154-2.467-5.697-5.76-5.697c-3.156,0-5.76,2.543-5.76,5.697v27.979h-21.948V31.209
		c0-3.154-2.605-5.697-5.767-5.697c-3.153,0-5.83,2.543-5.83,5.697v27.979h-21.876V31.209c0-3.154-2.674-5.697-5.829-5.697
		c-3.153,0-5.695,2.543-5.695,5.697v28.323c-8.223,1.376-15.5,5.211-20.986,10.767c-5.484,5.492-9.466,12.831-10.695,20.922H31.268
		c-3.215,0-5.827,2.535-5.827,5.83c0,3.152,2.612,5.829,5.827,5.829h27.917v21.813H31.268c-3.215,0-5.827,2.738-5.827,5.893
		c0,3.02,2.612,5.695,5.827,5.695h27.917v21.877H31.268c-3.215,0-5.827,2.675-5.827,5.829c0,3.221,2.612,5.695,5.827,5.695h27.917
		v22.08H31.268c-3.215,0-5.827,2.544-5.827,5.696c0,3.225,2.612,5.83,5.827,5.83h28.333c1.229,8.231,5.069,15.358,10.695,20.849
		c5.485,5.621,12.763,9.462,20.986,10.77v28.19c0,3.355,2.542,5.891,5.695,5.891c3.155,0,5.829-2.535,5.829-5.891v-27.775h21.876
		v27.775c0,3.355,2.676,5.891,5.83,5.891c3.161,0,5.767-2.535,5.767-5.891v-27.775h21.948v27.775c0,3.355,2.604,5.891,5.76,5.891
		c3.293,0,5.76-2.535,5.76-5.891v-27.775h21.943v27.775c0,3.355,2.545,5.891,5.768,5.891c3.154,0,5.758-2.535,5.758-5.891v-28.19
		c8.232-1.373,15.432-5.148,20.988-10.77c5.623-5.49,9.395-12.617,10.703-20.849h28.252c3.225,0,5.9-2.605,5.9-5.83
		c0-3.152-2.676-5.696-5.9-5.696h-27.846v-22.08h27.846c3.225,0,5.9-2.475,5.9-5.695c0-3.154-2.676-5.829-5.9-5.829h-27.846v-21.877
		H263.158L263.158,136.281z"/>
	<path fill="#FFFFFF" d="M170.412,133.109c-4.908,0-8.889-3.979-8.889-8.889c0-4.909,3.98-8.89,8.889-8.89
		c4.91,0,8.891,3.98,8.891,8.89C179.303,129.131,175.322,133.109,170.412,133.109L170.412,133.109z M184.838,109.671v-0.07
		c-0.688-0.688-1.65-1.167-2.748-1.167h-69.682c-1.096,0-2.128,0.479-2.739,1.237c-0.689,0.688-1.236,1.644-1.236,2.81v69.613
		c0,1.166,0.407,2.058,1.095,2.815h0.141c0.611,0.681,1.643,1.166,2.739,1.166h69.682c1.098,0,2.061-0.485,2.748-1.166
		c0.68-0.758,1.168-1.786,1.168-2.815V112.48C186.006,111.314,185.518,110.359,184.838,109.671L184.838,109.671z"/>
</g>
</svg>
