<svg height='100px' width='100px'  fill="#FFFFFF" xmlns="http://www.w3.org/2000/svg" data-name="Layer 1" viewBox="0 0 512 512" x="0px" y="0px"><title>Service</title><path d="M477.926,242.1a7,7,0,0,0-8.218-6.463l-85.495,15.27a7,7,0,0,0-5.77,6.891,123,123,0,1,1-123-123,7,7,0,0,0,6.91-5.882l14.032-86.725a7,7,0,0,0-6.48-8.1L223.868,31.25a7,7,0,0,0-7.4,6.332l-4.007,42.633a183.543,183.543,0,0,0-52.048,21.195l-33.23-27.392a7,7,0,0,0-9.4.451L72.114,120.136a7,7,0,0,0-.452,9.4l27.377,33.211a178.494,178.494,0,0,0-21.2,52.065l-42.55,4A6.951,6.951,0,0,0,29,225.788v64.421a6.95,6.95,0,0,0,6.288,6.969l42.605,4.006a183.5,183.5,0,0,0,21.172,52.048l-27.4,33.235a7,7,0,0,0,.448,9.4l44.018,44.022a7,7,0,0,0,9.4.452l33.235-27.392a183.515,183.515,0,0,0,52.047,21.186l4,42.576A6.95,6.95,0,0,0,221.79,483h64.421a6.951,6.951,0,0,0,6.97-6.288l4-42.578a178.469,178.469,0,0,0,52.07-21.184l33.216,27.383a7,7,0,0,0,9.4-.449l45.663-45.662a7,7,0,0,0,.451-9.4l-27.393-33.232a183.541,183.541,0,0,0,21.19-52.042l42.633-4.008a7,7,0,0,0,6.332-7.4ZM425.4,286.084a7,7,0,0,0-6.2,5.541A169.778,169.778,0,0,1,396.1,348.412a7,7,0,0,0,.5,8.214l26.538,32.2-36.672,36.672-32.2-26.536a7,7,0,0,0-8.246-.482A164.766,164.766,0,0,1,289.3,421.553a6.936,6.936,0,0,0-5.577,6.148L279.838,469H228.163l-3.886-41.3a6.968,6.968,0,0,0-5.542-6.169,169.764,169.764,0,0,1-56.791-23.088,7.009,7.009,0,0,0-8.214.512l-32.2,26.538-35.028-35.03,26.536-32.2a7,7,0,0,0,.5-8.214,169.755,169.755,0,0,1-23.1-56.791,6.935,6.935,0,0,0-6.141-5.541L43,283.836V232.161l41.3-3.887a6.969,6.969,0,0,0,6.177-5.577,164.754,164.754,0,0,1,23.066-56.72,7,7,0,0,0-.489-8.246l-26.54-32.192,36.672-36.674L155.377,115.4a7,7,0,0,0,8.214.5,169.768,169.768,0,0,1,56.792-23.112,7,7,0,0,0,5.54-6.2l3.85-40.953,31.558,1.944-11.867,73.343c-72.782,3.137-131.02,63.33-131.02,136.871,0,75.542,61.458,137,137,137,73.573,0,133.786-58.29,136.874-131.117l72.115-12.88,1.926,31.433Z"></path><path d="M479.255,84.468a7,7,0,0,0-6.74-.306l-29.855,14.7L432.646,78.52l33.242-16.362a7,7,0,0,0,2.3-10.75c-1.184-1.426-2.482-2.848-3.861-4.227A62.464,62.464,0,0,0,357.69,91.35c0,1.94.1,3.864.271,5.772L236.468,218.615c-1.907-.174-3.832-.271-5.772-.271a62.452,62.452,0,0,0-62.45,63.49,7,7,0,0,0,10.09,6.159l29.854-14.7,10.016,20.334-33.243,16.354a6.951,6.951,0,0,0-2.3,10.7c1.181,1.425,2.48,2.779,3.862,4.161A61.924,61.924,0,0,0,230.694,343h0a62.17,62.17,0,0,0,62.238-67.009l122.379-122.38c1.6.122,3.215.2,4.84.2a62.45,62.45,0,0,0,62.451-63.489A7,7,0,0,0,479.255,84.468ZM264.966,314.941A48.017,48.017,0,0,1,230.7,329h0a47.966,47.966,0,0,1-30.782-10.891l30.757-15.071a6.873,6.873,0,0,0,3.536-3.958,7,7,0,0,0-.347-5.347l-16.2-32.9a7,7,0,0,0-9.371-3.189l-24.83,12.221a48.462,48.462,0,1,1,81.509,45.075Zm24.5-55.282a62.538,62.538,0,0,0-36.873-37.371l109.041-109.04a62.709,62.709,0,0,0,37.344,36.9ZM454.424,125.62a48.438,48.438,0,1,1-3.487-71.707L420.182,69.051a7,7,0,0,0-3.19,9.373l16.2,32.9a7,7,0,0,0,9.372,3.188L467.4,102.288A48.065,48.065,0,0,1,454.424,125.62Z"></path></svg>